<?xml version="1.0" standalone="no"?>
<!DOCTYPE svg PUBLIC "-//W3C//DTD SVG 20010904//EN"
 "http://www.w3.org/TR/2001/REC-SVG-20010904/DTD/svg10.dtd">
<svg version="1.0" xmlns="http://www.w3.org/2000/svg"
 width="324.000000pt" height="329.000000pt" viewBox="0 0 324.000000 329.000000"
 preserveAspectRatio="xMidYMid meet">

<g transform="translate(0.000000,329.000000) scale(0.100000,-0.100000)"
fill="#000000" stroke="none">
<path d="M0 1645 l0 -1645 1620 0 1620 0 0 1645 0 1645 -1620 0 -1620 0 0
-1645z m1581 1584 c13 -26 -9 -117 -65 -262 -25 -65 -62 -168 -82 -230 -35
-106 -37 -121 -41 -272 -4 -134 1 -205 27 -435 37 -334 48 -510 31 -510 -19 0
-44 71 -116 330 -166 601 -228 734 -515 1100 -118 151 -142 206 -99 233 24 15
90 -13 164 -68 77 -58 244 -224 300 -297 l43 -57 22 62 c49 136 139 294 212
373 60 65 96 75 119 33z m1302 -7 c244 -132 357 -632 256 -1134 -48 -242 -152
-466 -277 -600 l-45 -48 101 -97 c156 -151 187 -236 186 -513 0 -154 -2 -170
-27 -244 -95 -273 -378 -479 -730 -532 -287 -44 -552 68 -774 325 -126 147
-176 275 -176 456 -1 143 19 205 87 271 62 60 131 87 217 87 104 -1 186 -59
232 -162 25 -57 34 -165 17 -216 -16 -47 -80 -118 -137 -152 -36 -21 -42 -29
-37 -47 9 -31 52 -104 97 -163 154 -206 424 -254 636 -112 210 140 321 416
267 667 -32 152 -92 244 -231 354 -234 186 -300 286 -336 508 -15 93 -12 343
6 492 58 495 228 817 465 882 71 20 141 12 203 -22z m-783 4 c0 -8 -28 -56
-62 -107 -160 -243 -225 -453 -235 -750 -14 -450 77 -708 313 -888 57 -43 250
-146 354 -189 25 -10 24 -10 -22 -31 -74 -34 -195 -61 -267 -61 -314 0 -542
260 -640 730 -37 178 -44 255 -38 444 16 506 193 802 510 855 77 13 87 12 87
-3z m-1674 -205 c216 -84 405 -243 509 -429 216 -390 285 -646 285 -1063 0
-360 -40 -572 -151 -795 -147 -296 -401 -466 -673 -452 -200 10 -351 157 -364
353 -8 124 37 211 130 249 85 36 216 2 258 -66 27 -45 28 -144 0 -198 -19 -38
-19 -39 -1 -45 28 -9 67 3 144 43 154 79 272 273 324 529 22 109 25 502 4 628
-67 417 -229 728 -595 1138 -94 107 -108 130 -83 141 29 13 136 -3 213 -33z"/>
<path d="M2637 3047 c-138 -84 -235 -365 -268 -782 -32 -396 52 -745 178 -745
47 0 83 21 135 79 114 127 216 418 247 703 15 138 14 372 -3 460 -46 241 -167
359 -289 285z"/>
</g>
</svg>
